<svg xmlns="http://www.w3.org/2000/svg" viewBox="0 0 64 64" id="machine-learning">
  <path d="M4,32a8.017,8.017,0,0,0,3.557,6.65A9.989,9.989,0,0,0,12.335,53.3a7.939,7.939,0,0,0,7.339,5.691A6.991,6.991,0,0,0,32.315,59H37a1,1,0,0,0,1-1V56.3a25.729,25.729,0,0,0,7.646-3.173l1.2,1.2a1,1,0,0,0,1.414,0l7.071-7.07a1,1,0,0,0,0-1.414l-1.2-1.2A25.738,25.738,0,0,0,57.3,37H59a1,1,0,0,0,1-1V26a1,1,0,0,0-1-1H57.3a25.712,25.712,0,0,0-3.172-7.646l1.2-1.2a1,1,0,0,0,0-1.414L48.263,7.666a1,1,0,0,0-1.414,0l-1.2,1.2A25.712,25.712,0,0,0,38,5.7V4a1,1,0,0,0-1-1H31.46A5.991,5.991,0,0,0,21.227,5.36,7.01,7.01,0,0,0,12,12c0,.088,0,.175,0,.261A7.991,7.991,0,0,0,7.877,25.146,8.029,8.029,0,0,0,4,32ZM33,16.051a15.979,15.979,0,0,1,0,31.9V38h1.465l1.7,2.555A1,1,0,0,0,37,41h1.184a3,3,0,1,0,0-2h-.649l-1.7-2.555A1,1,0,0,0,35,36H33V33h7.184a3,3,0,1,0,0-2H33V28h2a1,1,0,0,0,.832-.445L37.535,25h.649a3,3,0,1,0,0-2H37a1,1,0,0,0-.832.445L34.465,26H33ZM40,40a1,1,0,1,1,1,1A1,1,0,0,1,40,40Zm2-8a1,1,0,1,1,1,1A1,1,0,0,1,42,32Zm-2-8a1,1,0,1,1,1,1A1,1,0,0,1,40,24ZM36,5V6.5a1,1,0,0,0,.8.98,23.776,23.776,0,0,1,8.43,3.5,1,1,0,0,0,1.26-.127l1.065-1.065,5.657,5.657-1.065,1.065a1,1,0,0,0-.127,1.26,23.776,23.776,0,0,1,3.5,8.43,1,1,0,0,0,.98.8H58v8H56.5a1,1,0,0,0-.98.8,23.776,23.776,0,0,1-3.5,8.43,1,1,0,0,0,.126,1.259l1.066,1.067-5.657,5.656-1.065-1.066a1,1,0,0,0-1.26-.126,23.769,23.769,0,0,1-8.43,3.5,1,1,0,0,0-.8.98V57H32.92A7.026,7.026,0,0,0,33,56V49.949a17.975,17.975,0,0,0,0-35.9V7a5.976,5.976,0,0,0-.35-2ZM9.933,26.369a1,1,0,0,0,.286-1.716,5.987,5.987,0,0,1,3.005-10.591,1,1,0,0,0,.856-1.193A4.35,4.35,0,0,1,14,12a5.006,5.006,0,0,1,5-5,4.912,4.912,0,0,1,2.5.671,1,1,0,0,0,1.508-.827A4,4,0,0,1,31,7V18.54A5.969,5.969,0,0,0,27,17v2a4,4,0,0,1,4,4V56a5,5,0,0,1-9.715,1.653,1.027,1.027,0,0,0-.969-.669.936.936,0,0,0-.149.012A1.558,1.558,0,0,1,20,57a5.959,5.959,0,0,1-5.854-4.679,1,1,0,0,0-.663-.731A7.985,7.985,0,0,1,9.794,38.964a1,1,0,0,0-.351-1.54,6,6,0,0,1,.49-11.055Z"></path>
  <path d="M19 37a6.006 6.006 0 016 6h2a8.009 8.009 0 00-8-8zM18 46H16a6.006 6.006 0 006 6V50A4 4 0 0118 46zM22 18V16a7.008 7.008 0 00-7 7h2A5.006 5.006 0 0122 18z"></path>
</svg>
